PathFileType	4	(X/Y/Z)	C:\Users\86182\Documents\cortex\Trimmed_M4_L8.trc
DataRate	CameraRate	NumFrames	NumMarkers	Units	OrigDataRate	OrigDataStartFrame	OrigNumFrames
100.00	100.00	       99	2	mm	100.00	181	       901
Frame#	Time	gripper			box			
		X1	Y1	Z1	X2	Y2	Z2	

181	1.800	279.11365	150.05386	208.99097	278.67966	148.81052	74.42387	
182	1.810	279.05853	150.06984	209.42377	278.61017	148.81000	74.84840	
183	1.820	278.97620	150.08818	209.86838	278.55740	148.80203	75.25714	
184	1.830	278.89493	150.10370	210.31241	278.51602	148.78749	75.66087	
185	1.840	278.85083	150.11028	210.74194	278.48581	148.76683	76.06925	
186	1.850	278.84296	150.10915	211.16106	278.46701	148.74124	76.48770	
187	1.860	278.83328	150.10835	211.58923	278.45663	148.71257	76.91659	
188	1.870	278.79681	150.11308	212.03688	278.45010	148.68279	77.35326	
189	1.880	278.75281	150.12030	212.49306	278.44553	148.65358	77.79497	
190	1.890	278.73730	150.12372	212.94124	278.44409	148.62631	78.24001	
191	1.900	278.75699	150.12219	213.37959	278.44644	148.60202	78.68729	
192	1.910	278.79462	150.11887	213.81506	278.44916	148.58173	79.13537	
193	1.920	278.85126	150.11336	214.24313	278.44662	148.56642	79.58201	
194	1.930	278.94171	150.10265	214.65100	278.43573	148.55646	80.02447	
195	1.940	279.05008	150.08975	215.03987	278.41901	148.55196	80.46028	
196	1.950	279.13019	150.08302	215.42807	278.40179	148.55280	80.88917	
197	1.960	279.15756	150.08461	215.82915	278.38605	148.55721	81.31357	
198	1.970	279.15765	150.08463	216.23611	278.36826	148.56201	81.73512	
199	1.980	279.16922	150.07028	216.63335	278.34467	148.56502	82.15126	
200	1.990	279.18845	150.03978	217.02138	278.31693	148.56621	82.55732	
201	2.000	279.17114	150.00359	217.41985	278.29214	148.56602	82.95161	
202	2.010	279.08783	149.97241	217.84558	278.27960	148.56349	83.33752	
203	2.020	278.95175	149.94940	218.29828	278.28873	148.55606	83.71948	
204	2.030	278.78940	149.93414	218.77072	278.32907	148.54137	84.09730	
205	2.040	278.60956	149.92886	219.26109	278.40906	148.51903	84.46555	
206	2.050	278.41760	149.93584	219.76645	278.53140	148.49095	84.81960	
207	2.060	278.24240	149.95122	220.27301	278.68588	148.46120	85.16354	
208	2.070	278.12347	149.96680	220.76401	278.84424	148.43591	85.51443	
209	2.080	278.07465	149.97789	221.23418	278.96835	148.42148	85.89527	
210	2.090	278.08411	149.98421	221.68634	279.04117	148.41962	86.31322	
211	2.100	278.14948	149.98357	222.11676	279.08395	148.42532	86.74889	
212	2.110	278.28024	149.97226	222.51707	279.12744	148.43204	87.17797	
213	2.120	278.46246	149.95166	222.89001	279.17508	148.43800	87.59705	
214	2.130	278.65543	149.92767	223.25073	279.20395	148.44571	88.02090	
215	2.140	278.82974	149.90372	223.61134	279.20145	148.45566	88.45656	
216	2.150	278.98431	149.87952	223.97362	279.18805	148.46294	88.88928	
217	2.160	279.11737	149.85722	224.33969	279.19113	148.46213	89.30143	
218	2.170	279.20569	149.84351	224.72032	279.20886	148.45427	89.69586	
219	2.180	279.22919	149.84294	225.12563	279.21283	148.44653	90.09325	
220	2.190	279.19983	149.85275	225.55292	279.18738	148.44438	90.50816	
221	2.200	279.15283	149.86595	225.98969	279.15305	148.44603	90.93488	
222	2.210	279.11090	149.87959	226.42838	279.13519	148.44745	91.36213	
223	2.220	279.06775	149.89711	226.87326	279.12262	148.45068	91.79404	
224	2.230	279.01395	149.92087	227.32927	279.07199	148.46396	92.25040	
225	2.240	278.95779	149.94801	227.79228	278.95728	148.49248	92.74394	
226	2.250	278.90292	149.97707	228.25795	278.80353	148.53152	93.26171	
227	2.260	278.83060	150.01205	228.72971	278.66119	148.57059	93.77515	
228	2.270	278.72925	150.05502	229.20854	278.56778	148.60091	94.25924	
229	2.280	278.62323	150.09940	229.68285	278.54092	148.61861	94.69981	
230	2.290	278.54544	150.13576	230.13953	278.58243	148.62511	95.09471	
231	2.300	278.48672	150.16359	230.58253	278.67603	148.62549	95.45406	
232	2.310	278.39590	150.19276	231.03195	278.78342	148.62614	95.80058	
233	2.320	278.23007	150.23340	231.50500	278.85510	148.63255	96.16295	
234	2.330	277.98804	150.28740	232.00363	278.86783	148.64594	96.55414	
235	2.340	277.69931	150.34979	232.51819	278.84613	148.66179	96.95998	
236	2.350	277.40884	150.41273	233.03337	278.82874	148.67482	97.36060	
237	2.360	277.17270	150.46631	233.52988	278.82489	148.68466	97.75638	
238	2.370	277.04309	150.50079	233.98969	278.81540	148.69540	98.16528	
239	2.380	277.04941	150.51047	234.40286	278.79166	148.70955	98.59660	
240	2.390	277.19382	150.49506	234.77011	278.77771	148.72408	99.03610	
241	2.400	277.45163	150.45955	235.10306	278.80124	148.73500	99.46530	
242	2.410	277.77524	150.41283	235.42128	278.85675	148.74437	99.88644	
243	2.420	278.11053	150.36443	235.74451	278.90955	148.76012	100.31992	
244	2.430	278.40900	150.32309	236.08891	278.93677	148.78687	100.77821	
245	2.440	278.62741	150.29781	236.46841	278.95209	148.81992	101.25040	
246	2.450	278.73935	150.29562	236.89014	278.97501	148.85196	101.71979	
247	2.460	278.74518	150.31789	237.35051	278.98969	148.88327	102.18836	
248	2.470	278.65115	150.36247	237.84421	278.94940	148.92166	102.67584	
249	2.480	278.45053	150.42830	238.37166	278.82516	148.97264	103.19444	
250	2.490	278.14410	150.51306	238.93077	278.63727	149.03264	103.73133	
251	2.500	277.76929	150.60828	239.50616	278.42944	149.09320	104.26207	
252	2.510	277.39059	150.70061	240.07277	278.23364	149.14694	104.77073	
253	2.520	277.06390	150.77849	240.60995	278.06647	149.18896	105.25288	
254	2.530	276.81607	150.83664	241.11034	277.93600	149.21745	105.71029	
255	2.540	276.64917	150.87573	241.57825	277.84229	149.23433	106.14755	
256	2.550	276.55124	150.89980	242.02312	277.77795	149.24356	106.57066	
257	2.560	276.50470	150.91348	242.45416	277.73370	149.24866	106.98547	
258	2.570	276.49408	150.91966	242.87828	277.70526	149.25148	107.39627	
259	2.580	276.51010	150.91920	243.29958	277.69348	149.25262	107.80589	
260	2.590	276.54834	150.91302	243.71988	277.69824	149.25229	108.21797	
261	2.600	276.60550	150.90347	244.13992	277.71506	149.25116	108.63727	
262	2.610	276.67902	150.89256	244.55905	277.73859	149.25095	109.06636	
263	2.620	276.76868	150.87987	244.97459	277.76627	149.25388	109.50319	
264	2.630	276.87622	150.86340	245.38322	277.79697	149.26126	109.94398	
265	2.640	276.99933	150.84241	245.78473	277.82773	149.27251	110.38673	
266	2.650	277.12286	150.81900	246.18378	277.85315	149.28574	110.83099	
267	2.660	277.21512	150.79820	246.58902	277.86755	149.29839	111.27475	
268	2.670	277.23819	150.78545	247.01083	277.86719	149.30702	111.71359	
269	2.680	277.17587	150.78178	247.45404	277.85132	149.30838	112.14355	
270	2.690	277.04883	150.78239	247.91219	277.82224	149.30075	112.56426	
271	2.700	276.89453	150.78151	248.37337	277.78329	149.28448	112.97915	
272	2.710	276.74158	150.77698	248.82884	277.73669	149.26157	113.39252	
273	2.720	276.60510	150.76956	249.27383	277.68280	149.23500	113.80577	
274	2.730	276.49088	150.76022	249.70602	277.62097	149.20758	114.21751	
275	2.740	276.39935	150.74890	250.12709	277.55148	149.18047	114.62723	
276	2.750	276.33044	150.73547	250.54330	277.47849	149.15363	115.03655	
277	2.760	276.28467	150.72107	250.96150	277.41013	149.12787	115.44813	
278	2.770	276.25964	150.70787	251.38446	277.35519	149.10535	115.86433	
279	2.780	276.24899	150.69786	251.81088	277.31790	149.08833	116.28650	
